<svg id="Capa_1" enable-background="new 0 0 512 512" height="512" viewBox="0 0 512 512" width="512" xmlns="http://www.w3.org/2000/svg" xmlns:xlink="http://www.w3.org/1999/xlink"><linearGradient id="SVGID_1_" gradientUnits="userSpaceOnUse" x1="256" x2="256" y1="512" y2="0"><stop offset="0" stop-color="#a93aff"/><stop offset="1" stop-color="#ff81ff"/></linearGradient><g><g><path d="m136 121h-60c-8.284 0-15 6.716-15 15v60c0 8.284 6.716 15 15 15h60c8.284 0 15-6.716 15-15v-60c0-8.284-6.716-15-15-15zm-15 60h-30v-30h30zm15 60h-60c-8.284 0-15 6.716-15 15v60c0 8.284 6.716 15 15 15h60c8.284 0 15-6.716 15-15v-60c0-8.284-6.716-15-15-15zm-15 60h-30v-30h30zm195 120h-120c-8.284 0-15 6.716-15 15s6.716 15 15 15h120c8.284 0 15-6.716 15-15s-6.716-15-15-15zm0-120h-120c-8.284 0-15 6.716-15 15s6.716 15 15 15h120c8.284 0 15-6.716 15-15s-6.716-15-15-15zm-30 90c8.284 0 15-6.716 15-15s-6.716-15-15-15h-30c-8.284 0-15 6.716-15 15s6.716 15 15 15zm0-120c8.284 0 15-6.716 15-15s-6.716-15-15-15h-30c-8.284 0-15 6.716-15 15s6.716 15 15 15zm-150 90h-60c-8.284 0-15 6.716-15 15v60c0 8.284 6.716 15 15 15h60c8.284 0 15-6.716 15-15v-60c0-8.284-6.716-15-15-15zm-15 60h-30v-30h30zm60-225c0 8.284 6.716 15 15 15h120c8.284 0 15-6.716 15-15s-6.716-15-15-15h-120c-8.284 0-15 6.716-15 15zm75-45h30c8.284 0 15-6.716 15-15s-6.716-15-15-15h-30c-8.284 0-15 6.716-15 15s6.716 15 15 15zm121-121h-78.58c-6.192-17.458-22.865-30-42.42-30h-120c-19.555 0-36.228 12.542-42.42 30h-78.58c-8.284 0-15 6.716-15 15v452c0 8.284 6.716 15 15 15h362c8.284 0 15-6.716 15-15v-452c0-8.284-6.716-15-15-15zm-256 15c0-8.271 6.729-15 15-15h120c8.271 0 15 6.729 15 15v14h-150zm241 437h-332v-422h61v14c0 8.284 6.716 15 15 15h180c8.284 0 15-6.716 15-15v-14h61zm149.23-320.744-30-90c-2.042-6.125-7.774-10.256-14.23-10.256s-12.188 4.131-14.23 10.256l-30 90c-.457 1.367-.77 3.154-.77 4.744v240c0 24.813 20.187 45 45 45s45-20.187 45-45v-240c0-1.589-.306-3.34-.77-4.744zm-44.23-37.822 9.189 27.566h-18.377zm15 282.566c0 8.271-6.729 15-15 15s-15-6.729-15-15v-225h30zm-286-255c8.284 0 15-6.716 15-15s-6.716-15-15-15-15 6.716-15 15 6.716 15 15 15zm0 120c8.284 0 15-6.716 15-15s-6.716-15-15-15-15 6.716-15 15 6.716 15 15 15zm0 120c8.284 0 15-6.716 15-15s-6.716-15-15-15-15 6.716-15 15 6.716 15 15 15z" fill="url(#SVGID_1_)"/></g></g></svg>